<svg width="211" height="237" viewBox="0 0 211 237" fill="none" xmlns="http://www.w3.org/2000/svg">
<path d="M14.5922 42.4044C25.5075 90.9777 33.6608 140.498 44.5323 188.877C46.6301 198.212 47.2626 207.646 49.3208 216.804C50.0681 220.13 62.1929 214.656 65.0545 214.013C76.6592 211.405 88.129 208.829 100.064 208.376C111.152 207.956 121.89 205.063 132.944 205.037C139.288 205.022 150.515 205.232 150.899 198.523C150.979 197.13 173.104 194.194 176.133 193.513C179.554 192.745 195.278 191.621 197.301 188.426C198.455 186.603 195.773 180.156 195.318 178.13C191.649 161.806 187.61 145.523 184.384 129.107C179.258 103.02 178.402 76.3802 172.558 50.3715C170.023 39.0906 166.12 28.3429 163.594 17.1018C161.615 8.29455 162.885 -0.642749 151.996 4.8343C136.039 12.86 114.164 13.8295 96.8566 17.9687C81.7139 21.5901 67.4056 27.5616 52.1847 30.982C39.4418 33.8455 26.6988 36.7091 13.9559 39.5726" stroke="#0D0D0D" stroke-width="6" stroke-linecap="round"/>
<path d="M51.1643 196.793C40.3654 148.738 31.6207 96.7622 20.8064 48.4636C20.6858 47.9247 21.0247 47.3912 21.5636 47.2701L58.8167 38.8987C74.0376 35.4783 88.346 29.5068 103.489 25.8854C120.796 21.7462 142.671 20.7768 158.628 12.7511C169.517 7.274 168.247 16.2113 170.226 25.0185C172.752 36.2597 176.655 47.0073 179.19 58.2882C185.034 84.2969 185.89 110.937 191.016 137.023C194.242 153.44 198.281 169.723 201.95 186.046C202.405 188.073 205.087 194.52 203.933 196.343C201.91 199.538 186.186 200.662 182.765 201.43C179.736 202.111 157.611 205.047 157.531 206.44C157.147 213.149 145.92 212.938 139.576 212.953C128.523 212.98 117.784 215.872 106.696 216.293C94.761 216.746 83.2913 219.322 71.6866 221.929C68.8249 222.572 56.7001 228.047 55.9528 224.721C53.8946 215.562 53.2622 206.129 51.1643 196.793Z" fill="#F8E3D0" stroke="#0D0D0D" stroke-width="6" stroke-linecap="round"/>
<path d="M49.1441 75.2819C58.7679 73.1193 68.4535 70.3751 78.1874 68.838C81.5161 68.3124 92.0432 67.0554 95.1691 68.6578C96.3281 69.2519 98.3097 66.9927 100.219 66.8619C106.06 66.4617 111.751 68.5143 117.596 67.3365C122.01 66.4472 125.428 64.0892 129.706 63.1278C134.609 62.026 138.966 59.5595 143.547 58.5302" stroke="#0D0D0D" stroke-width="6" stroke-linecap="round"/>
<path d="M64.6392 104.522C75.2321 102.142 85.825 99.7617 96.4179 97.3813C101.503 96.2385 100.366 102.28 104.455 101.525C111.758 100.176 119.04 97.1059 126.484 98.0619C132.018 98.7726 137.169 95.6606 142.688 94.4205" stroke="#0D0D0D" stroke-width="6" stroke-linecap="round"/>
<path d="M68.664 142.29C67.6752 137.89 73.3494 125.811 77.0648 133.709C79.3613 138.591 86.2408 127.304 88.5527 125.26C93.9408 120.498 93.3163 126.338 98.3728 125.202C105.562 123.587 111.38 125.254 118.36 123.686C128.775 121.345 139.283 121.958 149.831 119.588" stroke="#0D0D0D" stroke-width="6" stroke-linecap="round"/>
<path d="M75.0275 170.607C74.7329 167.95 77.6714 165.201 79.8036 163.915C84.0269 161.368 85.0985 166.305 86.655 169.399C91.2344 178.504 107.04 161.551 113.188 159.14C115.782 158.123 117.451 159.494 120.785 158.011C127.543 155.006 134.559 151.626 141.717 149.672C147.065 148.212 152.422 148.754 157.61 147.588" stroke="#0D0D0D" stroke-width="6" stroke-linecap="round"/>
<path d="M79.3387 196.412C87.1004 194.667 102.225 194.513 108.205 189.181C110.537 187.102 110.279 189.891 111.044 191.518C113.188 196.076 122.866 188.834 125.28 187.575C136.442 181.754 150.836 181.832 163.194 179.055" stroke="#0D0D0D" stroke-width="6" stroke-linecap="round"/>
<path d="M33.312 75.9476C24.8528 77.8485 21.7235 77.115 13.5622 74.1057C6.51664 71.5078 12.6837 64.222 17.0692 63.2365" stroke="#0D0D0D" stroke-width="6" stroke-linecap="round"/>
<path d="M42.959 118.877C34.4998 120.778 31.3705 120.044 23.2091 117.035C16.1636 114.437 22.3307 107.151 26.7162 106.166" stroke="#0D0D0D" stroke-width="6" stroke-linecap="round"/>
<path d="M49.679 162.464C41.2197 164.365 38.0904 163.632 29.9291 160.622C22.8836 158.024 29.0506 150.739 33.4361 149.753" stroke="#0D0D0D" stroke-width="6" stroke-linecap="round"/>
<path d="M59.326 205.394C50.8667 207.295 47.7374 206.561 39.5761 203.552C32.5306 200.954 38.6976 193.668 43.0831 192.682" stroke="#0D0D0D" stroke-width="6" stroke-linecap="round"/>
</svg>
