<svg width="187" height="105" viewBox="0 0 187 105" fill="none" xmlns="http://www.w3.org/2000/svg">
<path d="M159.666 101.955C154.2 101.955 147.724 96.7325 143.117 94.1408C140.509 92.6742 138.079 90.717 135.75 88.9049C134.304 87.7805 132.335 87.399 130.803 86.3265C127.853 84.261 124.842 82.3298 121.805 80.4065C115.122 76.1739 107.005 73.3315 99.5197 70.6978C94.7015 69.0025 88.7369 67.3858 84.4699 64.5411C81.6211 62.6419 78.1809 61.5779 75.2611 59.8051C71.321 57.413 67.1732 55.235 63.0528 53.1748C58.4343 50.8655 54.2478 47.6828 49.5554 45.5973C47.9957 44.9041 45.7711 44.0048 44.5563 42.9925C42.8751 41.5915 40.973 39.5579 39.1099 38.4933C35.0318 36.163 31.3068 33.1596 28.3751 29.495C27.1068 27.9097 25.371 26.8569 24.218 25.1274C23.4875 24.0317 22.5257 22.7251 21.3764 22.0227C16.8226 19.2398 14.1875 13.3923 9.53654 10.6564C7.72496 9.59081 6.3307 7.75707 4.59009 6.76243C4.15898 6.51608 3.34361 4.63076 3.16931 4.15766C2.47349 2.26902 4.08629 3.2096 5.03738 3.42095C9.76262 4.47101 14.634 4.39446 19.7188 4.39446C26.7622 4.39446 33.9612 4.5034 40.8991 5.71C44.2144 6.28657 48.2507 7.23603 51.5813 7.23603C52.387 7.23603 53.7931 7.48818 54.5281 7.81487C55.8952 8.42247 55.4906 8.61729 56.4225 9.60401C57.1092 10.3311 57.909 11.2911 58.3169 12.2088C58.8176 13.3354 57.504 12.9192 56.633 12.9192C55.5727 12.9192 48.6544 12.2024 50.792 14.34C51.7432 15.2912 57.6283 20.0231 53.3178 20.0231C51.5843 20.0231 45.1806 18.2532 48.6082 21.6807C50.9385 24.0111 47.0642 24.135 46.9506 26.1798C46.8479 28.0279 47.4026 28.9191 44.7931 29.0214C41.8953 29.1351 44.3982 30.3874 43.5302 31.863C42.9539 32.8426 40.3849 31.7104 40.3202 32.8102C40.2658 33.735 40.2658 34.727 40.3202 35.6518C40.3663 36.4353 41.4074 37.0725 39.8467 37.0725C39.0617 37.0725 37.9887 37.4733 38.4259 36.599" stroke="#0D0D0D" stroke-width="6" stroke-linecap="round"/>
<path d="M55.9489 9.13013C59.3477 9.13013 62.1383 11.7893 65.4208 11.9717C67.092 12.0645 68.8222 13.0249 70.3935 13.6293C74.2396 15.1085 78.0157 16.8146 81.7335 18.602C90.7003 22.913 99.6546 27.3258 108.518 31.7575C116.311 35.654 124.838 38.1285 132.671 42.045C135.62 43.5191 138.721 44.8211 141.775 46.0706C145.601 47.6358 150.119 48.1693 153.746 50.1225C156.299 51.4969 159.002 52.5442 161.455 54.1217C162.604 54.8603 164.834 56.5792 166.086 56.937C168.407 57.5999 172.178 59.7082 173.874 61.2256C174.824 62.0757 175.896 62.3319 176.716 63.3568C178.781 65.9389 180.9 68.9823 182.294 72.1183C183.478 74.7826 183.765 77.5213 182.294 80.1695C180.801 82.8567 179.759 85.9484 178.347 88.7731C177.603 90.2617 177.855 92.6784 176.611 93.7985C174.438 95.7535 170.804 96.4223 168.191 97.7977C166.511 98.6818 164.718 99.5779 163.218 100.745C161.426 102.138 162.034 101.015 162.034 99.087C162.034 95.7957 161.087 93.0364 161.087 89.8782C161.087 87.2577 164.73 84.7604 165.823 82.3006C166.542 80.6839 167.994 78.6256 168.191 76.8543C168.46 74.4342 169.789 75.0719 171.269 74.2495C172.753 73.4255 174.268 72.6326 175.769 71.75C177.218 70.8972 177.646 68.5748 179.084 67.856" stroke="#0D0D0D" stroke-width="6" stroke-linecap="round"/>
<path d="M171.506 84.4319C171.506 86.9944 171.285 83.4427 172.085 82.6427C172.434 82.2936 173.084 80.9476 172.901 81.4061C172.548 82.2874 171.997 83.0915 171.611 83.9583C171.493 84.2239 171.096 85.8 170.796 85.8C169.99 85.8 171.215 84.0391 171.401 83.853C172.423 82.8309 173.176 82.5139 173.874 81.1167" stroke="#0D0D0D" stroke-width="6" stroke-linecap="round"/>
<path d="M164.876 73.5394C163.808 73.4059 161.861 72.1205 160.877 71.645C157.905 70.2103 155.007 68.7627 152.115 67.1722C148.002 64.9098 143.642 62.9126 139.381 60.9365C136.152 59.4392 133.566 57.4896 130.54 55.7796C119.901 49.7659 108.317 43.6653 96.9149 39.2037C88.5395 35.9264 80.8882 31.0875 72.63 27.6006C68.7991 25.9832 64.9379 22.3901 60.6848 21.9175C58.8404 21.7126 56.1285 19.8761 54.5281 19.0759" stroke="#0D0D0D" stroke-width="6" stroke-linecap="round"/>
<path d="M45.5298 32.8101C48.1215 35.1138 52.7039 34.7908 55.8436 35.7569C61.3232 37.4429 66.5417 38.7401 71.8406 41.0717C83.8593 46.3599 95.3429 52.7603 107.36 58.1474C113.568 60.93 119.486 64.5788 125.567 67.6193C131.757 70.7139 138.559 73.1733 144.406 76.8544C147.415 78.7493 150.961 80.1418 154.22 81.5904C155.785 82.2861 158.943 83.4595 159.666 84.9056" stroke="#0D0D0D" stroke-width="6" stroke-linecap="round"/>
<path d="M8.11389 6.30273C10.067 6.54687 12.9452 9.94357 13.7902 11.6336C14.7699 13.5929 16.5975 14.2419 17.8871 15.8538C18.4952 16.614 19.3208 16.8875 20.0095 17.5073C21.0588 18.4517 20.5525 16.7647 20.5525 15.8538C20.5525 14.4345 20.3065 13.8547 21.8852 13.8547C22.4859 13.8547 25.0232 14.1583 24.6493 13.4105C23.7967 11.7053 24.9462 9.58913 26.7718 8.62263C29.7972 7.02094 21.5145 8.96815 20.7746 8.96815C18.2204 8.96815 15.4838 9.41238 12.803 9.41238C11.0126 9.41238 12.8349 7.84165 13.4447 7.53672C14.7531 6.88251 16.4414 7.19121 17.8871 7.19121" stroke="black" stroke-width="6" stroke-linecap="round"/>
<path d="M18.3313 11.6338C18.3313 12.3632 18.5454 13.0816 17.8871 13.4107" stroke="black" stroke-width="6" stroke-linecap="round"/>
</svg>
