<svg width="41" height="41" viewBox="0 0 41 41" fill="none" xmlns="http://www.w3.org/2000/svg">
<path d="M9.33765 37.5126C9.33765 35.8109 10.5514 33.6659 11.3875 32.2197C13.2488 29.0002 15.9312 25.7976 18.2867 22.9341C20.7622 19.9246 23.8993 17.0946 25.9966 13.8321C28.2809 10.2788 30.2796 6.58284 32.7429 3.09322" stroke="#F28322" stroke-width="6" stroke-linecap="round"/>
<path d="M3.7627 10.3407C4.77139 11.3494 6.15177 12.005 7.37291 12.6965C10.3994 14.4103 13.4639 16.1081 16.582 17.6529C18.3615 18.5344 20.4955 19.1123 22.0585 20.3911C24.2374 22.1739 27.1352 23.1012 29.4931 24.6591C31.4353 25.9424 33.6367 26.7223 35.2909 28.3764C36.1414 29.227 36.9228 29.6743 37.9068 30.1663" stroke="#F28322" stroke-width="6" stroke-linecap="round"/>
</svg>
