<svg width="108" height="50" viewBox="0 0 108 50" fill="none" xmlns="http://www.w3.org/2000/svg">
<path d="M35.7142 7.49902C32.3831 7.86914 26.9132 12.393 24.7256 14.5805C20.6281 18.678 15.7424 21.5805 10.8068 24.4838C8.47146 25.8575 6.10419 29.3002 3.23697 29.9373C1.73819 30.2704 7.80992 31.6629 8.55487 31.9994C16.6683 35.6635 24.8279 39.3897 32.7839 43.3677C33.5555 43.7536 34.3621 44.1274 35.2258 44.1274" stroke="#F8E3D0" stroke-width="6" stroke-linecap="round"/>
<path d="M46.9469 46.5692C46.9469 42.5414 51.0663 36.8653 52.8074 33.383C55.1592 28.6795 57.2888 23.9318 59.6447 19.22C60.9799 16.5496 61.9398 13.7524 63.3347 11.1617C64.6618 8.69708 66.9704 0.792621 66.9704 3.59185" stroke="#F8E3D0" stroke-width="6" stroke-linecap="round"/>
<path d="M76.2496 9.45239C76.2496 13.902 85.2973 16.9625 88.242 19.1114C90.2333 20.5645 92.1223 21.3229 94.3196 22.4216C96.1741 23.3488 98.5844 24.9579 100.669 25.0805C101.826 25.1486 105.469 26.9633 103.843 28.2278C101.637 29.9438 99.3758 29.8717 96.7615 30.4527C92.0303 31.5041 87.8399 34.7802 83.6838 37.1815C82.719 37.7389 69.4191 45.1176 68.924 44.1273" stroke="#F8E3D0" stroke-width="6" stroke-linecap="round"/>
</svg>
