<svg width="112" height="58" viewBox="0 0 112 58" fill="none" xmlns="http://www.w3.org/2000/svg">
<path d="M7.49146 47.6534C7.49146 49.4601 6.49636 55.0993 8.99834 53.8483C11.9169 52.389 14.671 53.7284 17.621 52.8855C18.8805 52.5257 18.6624 46.1465 16.156 46.1465C13.2678 46.1465 10.3796 46.1465 7.49146 46.1465" stroke="#F8E3D0" stroke-width="6" stroke-linecap="round"/>
<path d="M99.4107 47.6533C99.4107 48.777 98.7962 53.6003 100.164 53.6808C102.531 53.8201 104.95 53.6808 107.322 53.6808C108.963 53.6808 109.012 48.7281 108.033 48.4486C105.997 47.8667 103.041 48.4068 100.918 48.4068" stroke="#F8E3D0" stroke-width="6" stroke-linecap="round"/>
<path d="M3.02095 5.1613C3.02095 6.25911 2.70491 11.3534 4.52782 10.6028C6.45278 9.81015 9.83101 10.4354 11.8947 10.4354C13.6867 10.4354 14.7551 6.68217 13.4016 5.32873C12.4714 4.39853 7.46918 5.1613 6.03469 5.1613" stroke="#F8E3D0" stroke-width="6" stroke-linecap="round"/>
<path d="M98.6572 5.46087C98.6572 7.62183 97.7667 11.3661 99.8292 10.7768C101.906 10.1835 103.94 9.22805 106.192 9.22805C109.657 9.22805 108.381 6.15484 107.657 3.61914C107.348 2.53891 100.653 3.20056 99.4107 3.20056" stroke="#F8E3D0" stroke-width="6" stroke-linecap="round"/>
<path d="M60.232 4.70754C57.5849 4.41341 55.1872 3.9541 52.3628 3.9541C50.3688 3.9541 52.6977 7.91507 52.6977 9.60487C52.6977 13.3998 53.219 13.0985 56.4648 11.6559C57.3236 11.2742 59.416 12.049 59.4786 10.735C59.5858 8.48444 59.4786 6.20899 59.4786 3.9541" stroke="#F8E3D0" stroke-width="6" stroke-linecap="round"/>
<path d="M10.5052 46.8998C10.5052 37.2054 17.4817 29.3753 24.0671 22.7899C27.7273 19.1296 31.2076 16.5788 35.5361 13.7486C40.5356 10.4797 42.9755 9.22803 48.9305 9.22803" stroke="#F8E3D0" stroke-width="6" stroke-linecap="round"/>
<path d="M60.232 9.22803C71.2318 10.603 80.8675 15.1076 90.3694 20.697C94.5381 23.1492 99.9981 28.8462 100.876 33.6728C101.8 38.7558 104.685 43.8869 104.685 49.1601" stroke="#F8E3D0" stroke-width="6" stroke-linecap="round"/>
<path d="M13.519 8.47461C19.722 8.47461 25.6982 9.22805 31.6014 9.22805C34.4743 9.22805 49.2878 7.6823 50.4373 9.98148" stroke="#F8E3D0" stroke-width="6" stroke-linecap="round"/>
<path d="M60.9854 7.72119H96.3969" stroke="#F8E3D0" stroke-width="6" stroke-linecap="round"/>
</svg>
