<svg width="125" height="188" viewBox="0 0 125 188" fill="none" xmlns="http://www.w3.org/2000/svg">
<path d="M11.5413 45.8538C11.5413 43.9682 9.91875 42.7064 9.91875 40.9861C9.91875 38.2697 9.37791 35.7094 9.37791 32.8734C9.37791 30.1282 11.9407 27.078 14.2455 25.7222C15.9677 24.7092 17.0551 22.2516 18.4521 20.8546C21.7622 17.5445 26.8423 15.9083 31.0118 13.8236C35.4766 11.5912 39.6302 8.9154 43.9921 6.49213C45.633 5.5805 48.4311 4.65964 49.8212 3.54752C51.3442 2.32911 53.7977 3.50048 55.4701 3.66771C57.9715 3.91786 61.7089 5.34489 64.0034 6.49213C65.4098 7.1953 67.3573 7.86287 68.4504 8.95599C70.7322 11.2378 75.9882 10.1579 79.1471 10.1579C82.9289 10.1579 85.4233 13.3866 86.2082 16.9185C86.4504 18.0083 86.6176 19.4479 87.1396 20.434C87.6805 21.4556 88.8081 20.4764 89.4232 21.2452C90.2852 22.3227 93.2193 22.5973 94.5613 22.5973C97.209 22.5973 101.283 24.6905 102.674 27.1945C103.615 28.8879 104.699 30.5322 105.889 32.0622C106.893 33.3535 108.489 34.1252 109.435 35.3072C110.634 36.8061 113.562 37.5695 115.083 38.8227C116.64 40.1047 118.341 41.5548 119.17 43.4199C123.391 52.9186 121.333 63.6829 121.333 73.9477C121.333 75.9729 120.281 79.3989 119.44 81.2492C118.092 84.2154 117.725 88.5316 117.006 91.7656C114.654 102.352 112.139 112.967 112.139 123.856C112.139 128.166 112.93 133.313 111.177 137.257C110.513 138.752 110.142 142.082 109.975 143.747C109.809 145.414 109.143 148.189 108.473 149.696C107.457 151.983 107.675 155.214 106.85 157.689C106.03 160.151 105.251 163.041 105.108 165.621C104.953 168.409 104.475 172.618 103.365 175.116C102.601 176.835 100.732 176.778 99.0383 177.82C94.4224 180.661 89.2321 182.221 84.0147 183.349C78.6127 184.517 71.0791 185.333 65.626 183.89C60.3728 182.499 56.3064 180.609 51.9846 177.82C48.9715 175.876 45.9613 174.603 43.8719 171.991C42.2285 169.937 44.5367 164.397 45.3442 162.136C46.4628 159.004 46.5915 155.158 47.5076 151.86C48.8331 147.088 49.3065 141.875 50.2118 136.986C51.4478 130.312 51.5639 123.222 51.5639 116.434C51.5639 114.256 51.9437 112.378 49.1301 112.378C47.2234 112.378 44.1643 111.64 42.64 110.455C39.6282 108.112 36.4028 106.07 33.1752 103.995C29.0029 101.313 25.8629 97.1992 22.1178 93.9891C16.3005 89.0028 13.7552 81.8078 9.13753 75.8707C8.25397 74.7347 6.67367 71.814 6.67367 70.4623C6.67367 69.0685 4.72246 66.9861 4.20982 65.5947C2.66387 61.3985 2.82142 57.8861 3.45864 53.4256C3.68739 51.8243 5.17584 48.9429 6.13283 47.7467C7.16239 46.4598 9.82684 46.5784 10.4596 45.3129" stroke="#F8E3D0" stroke-width="6" stroke-linecap="round"/>
<path d="M14.5 71C16 73 18.4571 78.2376 20 79.5C21.5429 80.7624 23.4568 81.2646 24 81.5C26.074 82.3987 27.1795 85.0696 29.1188 86.147C30.3945 86.8557 31.9392 86.5291 33.1751 87.0785C40.9049 90.5139 39.1245 80.4666 39.1245 75.901C39.1245 69.3837 34.4765 64.9501 30.7714 60.1864C28.0374 56.6712 24.0185 53.7856 20.4652 51.022C18.5996 49.571 16.9032 47.1004 14.7864 46.3948" stroke="#F8E3D0" stroke-width="6" stroke-linecap="round"/>
<path d="M60.2175 17.189C55.7909 17.189 50.6351 18.4953 47.2372 21.5157C43.7676 24.5998 37.8884 26.4606 33.716 28.5467C28.6841 31.0627 24.2417 35.0679 21.3967 39.9045C20.2756 41.8104 20.1574 49.0802 22.3582 50.1806" stroke="#F8E3D0" stroke-width="6" stroke-linecap="round"/>
<path d="M79 27C71.3521 27 63.5141 32.0188 57.0821 35.9571C53.1809 38.3459 46.6816 41.7 44 45.5C42.2208 48.0213 44 50.942 44 53.5C44 56.058 45.9823 61.5758 46.8756 63.9143C47.9122 66.6277 47.0391 70.0955 48.4627 72.8413C51.0898 77.9084 54.0325 84 60.2836 84" stroke="#F8E3D0" stroke-width="6" stroke-linecap="round"/>
<path d="M96.9951 42.0679C87.8145 42.0679 80.2344 46.9985 71.5753 48.0172C68.4869 48.3805 66.181 53.2266 65.5959 55.8595C64.4057 61.2156 62.1493 66.7886 61.84 72.3553C61.7091 74.7124 60.0832 80.468 64.2739 80.468C67.3808 80.468 69.1154 83.1722 72.1161 83.1722C75.7578 83.1722 76.9591 82.1647 79.9284 80.468C81.5199 79.5585 82.505 77.6619 84.0448 76.6821C84.8592 76.1638 89.0209 73.9778 86.719 73.9778" stroke="#F8E3D0" stroke-width="6" stroke-linecap="round"/>
<path d="M86 67.1415C89.2001 67.9699 91.7313 68.2499 94.9028 68.3597C96.0977 68.4011 101.509 68.49 101.997 67.9304" stroke="#F8E3D0" stroke-width="6" stroke-linecap="round"/>
<path d="M40.0381 73.7522C41.2404 73.7522 43.1222 73.7753 44.0883 74.5482C44.3916 74.7908 45.5521 74.595 45.9379 74.595C46.6123 74.595 47.1601 74.8057 47.8342 74.8057" stroke="#F8E3D0" stroke-width="6" stroke-linecap="round"/>
</svg>
