<svg width="35" height="45" viewBox="0 0 35 45" fill="none" xmlns="http://www.w3.org/2000/svg">
<path d="M13.429 16.1951C13.7039 16.6898 13.6281 17.2005 13.6281 17.7719C13.0541 17.6444 12.6729 16.3692 12.107 16.1951C11.0407 15.867 10.0742 17 8.99999 17C8.41803 17 7.45341 18.6083 7.28498 18.6832C7.05373 18.7859 6.07411 18.9864 5.81567 19C5.33404 19.0253 2.42766 23.7624 1.99999 24C1.5725 24.2375 1.45654 26.2971 1 26.5C1 26.5 2.08526 28.4756 2 28.5C2 28.5 3.09173 29.4885 3 29.5C2.89512 29.5131 4.18776 29.902 4.5 30C4.46922 30.2462 4.66889 30.0673 4.66889 30.3506C4.66889 30.579 4.74056 30.8109 4.74056 31.0673C4.74056 31.6659 5.16597 31.7496 5.5449 32.0907C5.82013 32.3384 6.64346 32.6083 6.99828 32.6083C7.49426 32.6083 8.16577 32.6194 8.64279 32.7556C9.54589 33.0137 10.7979 32.8233 11.7646 32.8233C12.6289 32.8233 12.9137 33.7951 13.5962 34.1851C13.7788 34.2895 14.1826 34.7209 14.2891 34.9019C14.4258 35.1343 14.8378 35.5695 15.0616 35.7062C15.3815 35.9017 15.533 36.1785 15.8858 36.3353C16.1509 36.4532 16.4206 36.5887 16.6742 36.7296C17.0943 36.9629 17.7185 36.9558 18.0878 37.2512C18.5021 37.5826 19.2572 37.5072 19.7203 37.7131C20.1885 37.9211 20.8133 37.7787 21.1936 38.159C21.5654 38.5308 22.1655 38.8005 22.5156 39.2381C22.6986 39.4669 23.009 39.6364 23.2323 39.8474C23.4442 40.0475 23.6772 40.3041 23.8217 40.5641C23.9925 40.8717 24.3181 41.0734 24.4826 41.3843C24.6373 41.6764 24.9295 41.9347 25.1516 42.1568C25.5381 42.5434 26.0164 42.9577 26.2426 43.4669C26.2797 43.5504 26.383 43.8531 26.4895 43.8531C26.5729 43.8531 26.7129 43.7299 26.816 43.7177C26.946 43.7024 27.2367 43.5342 27.3337 43.447C27.7116 43.1069 28.2972 43.0794 28.7154 42.7541C28.8566 42.6442 29.1114 42.471 29.2888 42.4316C29.5758 42.3678 29.7373 42.1168 30.0055 41.9976C30.2574 41.8856 30.5473 41.6031 30.7421 41.4082C30.936 41.2144 31.2498 41.0264 31.3872 40.7791C31.5178 40.544 31.7273 40.3338 31.9048 40.134C32.0014 40.0254 32.3201 39.7584 32.3349 39.6323C32.3712 39.324 32.7821 39.092 32.9083 38.8081C33.0193 38.5584 33.2025 38.2902 33.2627 38.0197C33.3841 37.4733 33.5025 36.8732 33.7325 36.3672C33.8172 36.1808 33.9008 35.743 33.9117 35.5469C33.9259 35.2919 33.9834 35.032 33.9834 34.7585C33.9834 34.5926 34.0462 34.2878 33.9276 34.1692C33.8615 34.1031 33.7433 34.0642 33.6967 34.006C33.6089 33.8963 33.2273 33.7105 33.0875 33.6794C32.0341 33.4454 31.3786 32.5549 30.4714 32.0509C30.0554 31.8198 29.6955 31.4812 29.2848 31.2465C28.8962 31.0245 28.6832 30.557 28.3212 30.3307C27.9538 30.1011 27.6122 29.6697 27.1386 29.6697C26.7262 29.6697 26.3225 29.1111 26.1351 28.7738C25.4368 27.5169 24.5918 26.2241 24.2358 24.7999C23.8952 23.4376 23.4516 22.1205 22.8182 20.8539C22.6965 20.6105 22.5066 20.2936 22.4479 20.0296C22.3875 19.7577 22.3259 19.3369 22.1931 19.0979C22.1064 18.9419 21.9937 18.6152 21.9462 18.4488C21.87 18.182 21.7117 17.9352 21.6515 17.6644C21.5907 17.3905 21.3334 17.2348 21.1538 17.0552C20.941 16.8423 20.8127 16.5388 20.5963 16.3225C20.0158 15.742 19.1381 15.363 18.6452 14.7059C18.4711 14.4737 17.9915 14.2651 17.7493 14.0767C17.4614 13.8528 17.1491 13.5442 16.8932 13.2883C16.2618 12.6569 15.8567 11.7731 15.3482 11.0505C14.8247 10.3065 14.1237 9.84556 13.4489 9.27459C13.1501 9.02176 12.8684 8.76974 12.5888 8.49017C12.3424 8.2438 11.9131 8.03589 11.7646 7.70176C11.6111 7.35652 11.1918 7.10135 10.9762 6.78991C10.7645 6.48419 10.5205 6.13519 10.2594 5.87408C9.65972 5.27438 9.49521 4.32146 8.89763 3.72387C8.13966 2.9659 7.48855 1.00028 6.20987 1.00028C5.5841 1.00028 5.24317 0.974036 4.81224 1.43032C4.41011 1.85611 4.3822 2.33798 4.3822 2.89963C4.3822 3.42663 4.68295 3.97854 4.93966 4.44061C5.36803 5.21168 5.70207 6.04032 6.17403 6.78991C6.54294 7.37581 6.8813 7.97689 7.25312 8.55786C7.6265 9.14126 8.12657 9.65222 8.42777 10.282C8.76122 10.9792 9.38555 11.5754 9.8254 12.2132C10.211 12.7723 10.7392 13.2596 11.0877 13.8298C11.2228 14.0509 11.4597 14.2744 11.661 14.4391C11.8135 14.5638 11.9977 14.5758 12.107 14.7616C12.26 15.0217 12.6237 15.2027 12.8397 15.4067C13.064 15.6185 13.2792 15.9255 13.429 16.1951Z" fill="#F8E3D0" stroke="#0D0D0D" stroke-width="0.1" stroke-linecap="round"/>
<path d="M13.6281 17.7719C13.6281 17.2005 13.7039 16.6898 13.429 16.1951C13.2793 15.9255 13.064 15.6185 12.8397 15.4067C12.6237 15.2027 12.26 15.0217 12.107 14.7616C11.9977 14.5758 11.8135 14.5638 11.6611 14.4391C11.4597 14.2744 11.2228 14.0509 11.0877 13.8298C10.7392 13.2596 10.211 12.7723 9.82541 12.2132C9.38556 11.5754 8.76123 10.9792 8.42778 10.282C8.12657 9.65221 7.6265 9.14126 7.25313 8.55786C6.8813 7.97689 6.54294 7.37581 6.17404 6.78991C5.70208 6.04032 5.36803 5.21167 4.93966 4.44061C4.68296 3.97854 4.3822 3.42663 4.3822 2.89963C4.3822 2.33798 4.41011 1.85611 4.81224 1.43032C5.24318 0.974036 5.58411 1.00028 6.20988 1.00028C7.48855 1.00028 8.13967 2.9659 8.89764 3.72387C9.49522 4.32146 9.65973 5.27438 10.2594 5.87408C10.5205 6.13519 10.7645 6.48419 10.9762 6.78991C11.1918 7.10135 11.6111 7.35652 11.7646 7.70176C11.9131 8.03589 12.3425 8.2438 12.5888 8.49017C12.8684 8.76974 13.1501 9.02176 13.4489 9.27459C14.1237 9.84556 14.8247 10.3065 15.3483 11.0505C15.8568 11.7731 16.2618 12.6569 16.8932 13.2883C17.1491 13.5442 17.4614 13.8528 17.7493 14.0767C17.9915 14.2651 18.4711 14.4737 18.6452 14.7059C19.1381 15.363 20.0159 15.742 20.5964 16.3225C20.8127 16.5388 20.941 16.8423 21.1538 17.0552C21.3334 17.2348 21.5907 17.3905 21.6516 17.6644C21.7117 17.9352 21.87 18.182 21.9462 18.4488C21.9938 18.6152 22.1064 18.9419 22.1931 19.0979C22.3259 19.3369 22.3875 19.7577 22.4479 20.0296C22.5066 20.2936 22.6965 20.6105 22.8182 20.8539C23.4516 22.1205 23.8952 23.4376 24.2358 24.7999C24.5918 26.2241 25.4369 27.5169 26.1351 28.7738C26.3225 29.1111 26.7262 29.6697 27.1386 29.6697C27.6122 29.6697 27.9538 30.1011 28.3212 30.3307C28.6832 30.557 28.8962 31.0245 29.2848 31.2465C29.6955 31.4812 30.0554 31.8198 30.4714 32.0509C31.3786 32.5549 32.0341 33.4454 33.0875 33.6794C33.2273 33.7105 33.609 33.8963 33.6967 34.006C33.7433 34.0642 33.8615 34.1031 33.9276 34.1692C34.0462 34.2878 33.9834 34.5926 33.9834 34.7585C33.9834 35.032 33.9259 35.2919 33.9117 35.5469C33.9008 35.7431 33.8172 36.1808 33.7325 36.3672C33.5025 36.8732 33.3841 37.4733 33.2627 38.0197C33.2026 38.2902 33.0193 38.5584 32.9083 38.8081C32.7821 39.092 32.3712 39.324 32.3349 39.6323C32.3201 39.7584 32.0014 40.0254 31.9049 40.134C31.7273 40.3338 31.5178 40.544 31.3872 40.7791C31.2498 41.0264 30.936 41.2144 30.7421 41.4082C30.5473 41.6031 30.2574 41.8856 30.0055 41.9976C29.7373 42.1168 29.5758 42.3678 29.2888 42.4316C29.1114 42.471 28.8567 42.6442 28.7154 42.7541C28.2972 43.0794 27.7116 43.1069 27.3337 43.447C27.2367 43.5342 26.946 43.7024 26.816 43.7177C26.7129 43.7299 26.5729 43.8531 26.4895 43.8531C26.383 43.8531 26.2797 43.5504 26.2426 43.4669C26.0164 42.9577 25.5381 42.5434 25.1516 42.1568C24.9295 41.9347 24.6373 41.6764 24.4827 41.3843C24.3181 41.0734 23.9925 40.8717 23.8217 40.5641C23.6772 40.3041 23.4442 40.0475 23.2323 39.8474C23.009 39.6364 22.6986 39.4669 22.5156 39.2381C22.1655 38.8005 21.5654 38.5308 21.1936 38.159C20.8133 37.7787 20.1885 37.9211 19.7203 37.7131C19.2572 37.5072 18.5021 37.5826 18.0878 37.2512C17.7186 36.9558 17.0943 36.9629 16.6742 36.7296C16.4206 36.5887 16.1509 36.4532 15.8858 36.3353C15.533 36.1785 15.3815 35.9017 15.0616 35.7062C14.8378 35.5695 14.4258 35.1343 14.2891 34.9019C14.1826 34.7209 13.7788 34.2895 13.5962 34.1851C12.9137 33.7951 12.6289 32.8233 11.7646 32.8233C10.7979 32.8233 9.54589 33.0137 8.6428 32.7556C8.16578 32.6194 7.49426 32.6083 6.99829 32.6083C6.64347 32.6083 5.82014 32.3384 5.54491 32.0907C5.16598 31.7496 4.74057 31.6659 4.74057 31.0673C4.74057 30.8109 4.6689 30.579 4.6689 30.3506C4.6689 30.0673 4.78146 29.8443 4.81224 29.598C4.82636 29.4851 5.1374 29.0378 5.24228 29.0246C5.33402 29.0132 5.39401 28.9045 5.48916 28.8773C5.57442 28.853 5.72854 28.8324 5.81567 28.7937C6.27222 28.5908 6.85749 28.5812 7.28498 28.3437C7.71266 28.1061 8.41601 27.8315 8.89764 27.8062C9.15608 27.7926 9.52648 27.6382 9.75772 27.5354C9.92616 27.4606 10.3994 27.4478 10.582 27.4478C11.6562 27.4478 12.8644 27.064 13.9307 27.3921C14.4966 27.5662 15.0968 27.818 15.6708 27.9456C16.1735 28.0573 16.6647 28.0929 17.2118 28.0929" stroke="#0D0D0D" stroke-linecap="round"/>
<path d="M24.2357 36.5504C23.6114 36.5504 23.0313 36.6937 22.4081 36.6937C22.0876 36.6937 21.7356 36.7373 21.4405 36.6061C21.1917 36.4956 20.745 36.3354 20.4729 36.3354C19.8789 36.3354 19.1317 35.5863 18.6452 35.316C18.3682 35.1621 18.187 34.8528 17.8966 34.6869C17.6374 34.5387 17.398 34.321 17.1401 34.1692C16.8797 34.0161 16.5592 33.8064 16.3357 33.6277C16.1403 33.4713 15.6424 33.4061 15.4916 33.2176C15.3402 33.0283 14.8423 33.0445 14.6315 32.9508C14.3901 32.8435 14.1091 32.7509 13.8749 32.684C12.7692 32.3681 11.5916 32.8234 10.4744 32.8234" stroke="#0D0D0D" stroke-linecap="round"/>
<path d="M13.5564 17.9152C13.5342 17.7373 13.2228 17.6112 13.198 17.4135C13.1792 17.2629 12.9583 17.0817 12.8556 16.9676C12.5318 16.6078 12.3933 16.2278 11.8362 16.1951C11.5768 16.1798 10.6807 15.9066 10.6178 16.4101C10.5649 16.8329 9.58597 16.8401 9.29183 16.8401C8.92505 16.8401 8.60887 17.3265 8.39592 17.5927C8.10708 17.9538 7.75338 18.2346 7.46416 18.5961C7.12321 19.0223 6.53454 18.5299 6.1382 18.847C5.71341 19.1868 5.28816 19.5628 4.88391 19.9221C4.13197 20.5905 3.53962 21.4836 3.07614 22.359C2.81272 22.8566 2.29656 23.4264 2.23199 24.0075C2.16704 24.592 1.76918 25.2419 1.47942 25.7635C1.24931 26.1777 0.816319 26.8658 1.08521 27.3363C1.29853 27.7096 1.64909 28.0185 1.87362 28.4114C1.99999 28.6326 2.25131 28.8501 2.48285 28.953C2.76367 29.0778 2.96025 29.3721 3.19958 29.5582C3.33333 29.6622 3.55034 29.9082 3.70528 29.9524C3.88402 30.0035 4.29309 30.0649 4.3822 30.2431" stroke="#0D0D0D" stroke-linecap="round"/>
<path d="M15.4199 27.5195C15.4199 26.8276 17.1392 24.9851 15.7384 24.5849C15.4495 24.5023 14.4964 24.2302 14.2174 24.4535C13.9145 24.6958 13.3413 25.0544 13.3413 25.4768C13.3413 25.7613 13.3585 25.8925 13.1821 25.6719C13.0386 25.4926 12.8378 25.2962 12.6604 25.1543C12.4623 24.9958 12.2354 24.8266 12.0512 24.6526C11.9273 24.5355 11.7775 24.4105 11.6928 24.2623C11.6146 24.1254 11.672 24.1927 11.7804 24.0951C12.3608 23.5728 12.6329 22.6974 13.0905 22.0365C13.4889 21.4609 14.2995 19.511 13.9864 20.1371" stroke="#0D0D0D" stroke-linecap="round"/>
<path d="M9.54271 18.1302C9.52339 18.2848 9.3293 18.4002 9.25602 18.5284C9.09906 18.8031 8.81009 19.0746 8.69856 19.3646C8.53517 19.7894 8.09097 20.267 7.82255 20.6547C7.48902 21.1365 7.0463 21.4913 6.76337 22.0006C6.51362 22.4502 6.17854 22.7447 5.83161 23.0916C5.34897 23.5743 5.10435 24.8559 5.61659 25.425C5.89197 25.731 6.13516 26.1066 6.53242 26.317C6.77291 26.4443 7.20435 26.7848 7.32083 27.0178" stroke="#0D0D0D" stroke-linecap="round"/>
<path d="M4.38221 28.8096C4.19014 28.7856 3.95152 28.3157 3.80882 28.1646C3.57832 27.9205 3.48618 27.6358 3.29118 27.3921C3.00045 27.0287 2.99506 25.9385 3.29118 25.5684C3.36917 25.4709 3.37094 25.2098 3.43452 25.0826C3.53044 24.8908 3.62797 24.7061 3.72122 24.5092C4.00687 23.9062 4.29796 23.3295 4.6689 22.7731C5.22828 21.934 5.66787 20.93 6.38907 20.2088" stroke="#0D0D0D" stroke-linecap="round"/>
</svg>
