<svg width="18" height="23" viewBox="0 0 18 23" fill="none" xmlns="http://www.w3.org/2000/svg">
<path d="M7.02618 8.36731C7.15945 8.6072 7.12271 8.85477 7.12271 9.13183C6.84443 9.06999 6.65957 8.45172 6.38522 8.36731C5.86823 8.20823 5.39961 8.75758 4.87878 8.75758C4.59662 8.75758 4.12893 9.53736 4.04726 9.57366C3.93514 9.62349 3.46018 9.72068 3.33487 9.72727C3.10135 9.73956 1.6922 12.0363 1.48484 12.1515C1.27757 12.2667 1.22135 13.2653 1 13.3636C1 13.3636 1.52619 14.3215 1.48485 14.3333C1.48485 14.3333 2.01417 14.8126 1.9697 14.8182C1.91884 14.8245 2.54558 15.0131 2.69697 15.0606C2.68205 15.18 2.77886 15.0932 2.77886 15.2306C2.77886 15.3413 2.81361 15.4538 2.81361 15.5781C2.81361 15.8683 3.01987 15.9089 3.20359 16.0743C3.33703 16.1944 3.73622 16.3252 3.90826 16.3252C4.14873 16.3252 4.47431 16.3306 4.7056 16.3967C5.14346 16.5218 5.7505 16.4295 6.21918 16.4295C6.63825 16.4295 6.77633 16.9007 7.10726 17.0898C7.1958 17.1404 7.39156 17.3495 7.44319 17.4373C7.50947 17.5499 7.70924 17.761 7.81772 17.8273C7.97283 17.922 8.04629 18.0563 8.21736 18.1323C8.34589 18.1894 8.47666 18.2551 8.59962 18.3234C8.8033 18.4366 9.10596 18.4331 9.28498 18.5763C9.48587 18.737 9.85196 18.7005 10.0765 18.8003C10.3035 18.9012 10.6064 18.8321 10.7908 19.0165C10.9711 19.1967 11.2621 19.3275 11.4318 19.5397C11.5205 19.6506 11.671 19.7328 11.7793 19.8351C11.882 19.9321 11.995 20.0565 12.065 20.1826C12.1479 20.3317 12.3057 20.4295 12.3855 20.5803C12.4605 20.7219 12.6022 20.8471 12.7099 20.9548C12.8973 21.1422 13.1291 21.3431 13.2389 21.59C13.2568 21.6305 13.3069 21.7773 13.3586 21.7773C13.399 21.7773 13.4668 21.7175 13.5169 21.7116C13.5799 21.7042 13.7208 21.6227 13.7678 21.5803C13.9511 21.4154 14.235 21.4021 14.4378 21.2444C14.5063 21.1911 14.6298 21.1071 14.7158 21.088C14.8549 21.0571 14.9332 20.9354 15.0633 20.8776C15.1854 20.8233 15.3259 20.6864 15.4204 20.5919C15.5144 20.4979 15.6666 20.4067 15.7332 20.2868C15.7965 20.1728 15.8981 20.0709 15.9842 19.9741C16.031 19.9214 16.1855 19.792 16.1927 19.7308C16.2103 19.5813 16.4095 19.4689 16.4707 19.3312C16.5245 19.2101 16.6134 19.0801 16.6425 18.9489C16.7014 18.684 16.7588 18.3931 16.8703 18.1477C16.9114 18.0574 16.9519 17.8451 16.9572 17.75C16.9641 17.6264 16.9919 17.5003 16.9919 17.3678C16.9919 17.2873 17.0224 17.1395 16.9649 17.082C16.9328 17.05 16.8755 17.0311 16.8529 17.0029C16.8104 16.9497 16.6254 16.8596 16.5576 16.8446C16.0469 16.7311 15.729 16.2993 15.2892 16.055C15.0875 15.9429 14.913 15.7788 14.7138 15.665C14.5254 15.5573 14.4222 15.3307 14.2466 15.2209C14.0685 15.1096 13.9029 14.9005 13.6732 14.9005C13.4733 14.9005 13.2776 14.6296 13.1867 14.4661C12.8482 13.8567 12.4385 13.2298 12.2658 12.5393C12.1007 11.8789 11.8856 11.2403 11.5785 10.6261C11.5195 10.5081 11.4274 10.3545 11.399 10.2265C11.3697 10.0946 11.3398 9.89059 11.2754 9.77472C11.2334 9.69909 11.1788 9.54072 11.1557 9.46003C11.1188 9.33065 11.0421 9.21103 11.0129 9.0797C10.9834 8.94689 10.8586 8.8714 10.7715 8.78432C10.6684 8.68113 10.6062 8.53398 10.5013 8.42909C10.2198 8.14763 9.79422 7.96387 9.55527 7.64526C9.47083 7.53269 9.23831 7.43157 9.12088 7.34023C8.98128 7.23166 8.82986 7.08203 8.7058 6.95797C8.39968 6.65185 8.20327 6.22332 7.95673 5.87297C7.70289 5.51225 7.363 5.28876 7.03583 5.01192C6.89095 4.88934 6.75437 4.76715 6.61882 4.6316C6.49937 4.51214 6.29119 4.41134 6.21918 4.24934C6.14479 4.08195 5.94147 3.95823 5.83693 3.80723C5.73431 3.659 5.61602 3.48979 5.48942 3.36319C5.19865 3.07243 5.11889 2.6104 4.82915 2.32067C4.46165 1.95317 4.14596 1.00014 3.526 1.00014C3.2226 1.00014 3.0573 0.987411 2.84836 1.20864C2.65338 1.41508 2.63985 1.64872 2.63985 1.92103C2.63985 2.17655 2.78567 2.44414 2.91014 2.66817C3.11783 3.04202 3.27979 3.44379 3.50862 3.80723C3.68748 4.0913 3.85154 4.38273 4.03182 4.66442C4.21285 4.94728 4.4553 5.19501 4.60134 5.50037C4.76302 5.83841 5.06572 6.12748 5.27898 6.43671C5.46592 6.70776 5.72202 6.94405 5.89098 7.22053C5.95649 7.32773 6.07138 7.43605 6.16899 7.51591C6.24292 7.5764 6.33221 7.58218 6.38522 7.67229C6.45939 7.79839 6.63572 7.88614 6.74045 7.98505C6.84922 8.08778 6.95357 8.23662 7.02618 8.36731Z" fill="#F8E3D0" stroke="#0D0D0D" stroke-width="0.1" stroke-linecap="round"/>
<path d="M7.12269 9.13183C7.12269 8.85477 7.15943 8.6072 7.02616 8.36731C6.95356 8.23662 6.8492 8.08778 6.74043 7.98505C6.6357 7.88614 6.45937 7.79839 6.3852 7.67229C6.33219 7.58218 6.2429 7.5764 6.16897 7.51591C6.07136 7.43605 5.95647 7.32773 5.89096 7.22053C5.72201 6.94405 5.4659 6.70776 5.27896 6.43671C5.0657 6.12748 4.763 5.83841 4.60132 5.50037C4.45528 5.19501 4.21283 4.94728 4.03179 4.66442C3.85152 4.38273 3.68746 4.0913 3.5086 3.80723C3.27977 3.44379 3.11781 3.04202 2.91012 2.66817C2.78565 2.44414 2.63983 2.17655 2.63983 1.92103C2.63983 1.64872 2.65336 1.41508 2.84834 1.20864C3.05728 0.987411 3.22258 1.00014 3.52598 1.00014C4.14594 1.00014 4.46163 1.95317 4.82913 2.32067C5.11887 2.6104 5.19863 3.07243 5.4894 3.36319C5.616 3.48979 5.73429 3.659 5.83691 3.80723C5.94145 3.95823 6.14477 4.08195 6.21917 4.24934C6.29117 4.41134 6.49935 4.51214 6.6188 4.6316C6.75435 4.76715 6.89093 4.88934 7.03581 5.01192C7.36298 5.28876 7.70287 5.51225 7.95671 5.87297C8.20325 6.22332 8.39966 6.65185 8.70578 6.95797C8.82984 7.08203 8.98126 7.23165 9.12086 7.34023C9.23829 7.43157 9.47081 7.53269 9.55524 7.64526C9.7942 7.96387 10.2198 8.14763 10.5012 8.42909C10.6061 8.53398 10.6683 8.68113 10.7715 8.78432C10.8586 8.8714 10.9833 8.94689 11.0128 9.0797C11.042 9.21103 11.1187 9.33065 11.1557 9.46003C11.1788 9.54071 11.2334 9.69909 11.2754 9.77472C11.3398 9.89059 11.3697 10.0946 11.399 10.2265C11.4274 10.3545 11.5195 10.5081 11.5785 10.6261C11.8856 11.2403 12.1007 11.8789 12.2658 12.5393C12.4384 13.2298 12.8481 13.8567 13.1867 14.4661C13.2776 14.6296 13.4733 14.9005 13.6732 14.9005C13.9028 14.9005 14.0685 15.1096 14.2466 15.2209C14.4221 15.3307 14.5254 15.5573 14.7138 15.665C14.913 15.7788 15.0874 15.9429 15.2891 16.055C15.729 16.2993 16.0468 16.7311 16.5575 16.8446C16.6254 16.8596 16.8104 16.9497 16.8529 17.0029C16.8755 17.0311 16.9328 17.05 16.9649 17.082C17.0224 17.1395 16.9919 17.2873 16.9919 17.3678C16.9919 17.5003 16.964 17.6264 16.9572 17.75C16.9519 17.8451 16.9114 18.0574 16.8703 18.1477C16.7588 18.3931 16.7013 18.684 16.6425 18.9489C16.6133 19.0801 16.5245 19.2101 16.4707 19.3312C16.4095 19.4689 16.2102 19.5813 16.1927 19.7308C16.1855 19.792 16.0309 19.9214 15.9841 19.9741C15.8981 20.0709 15.7965 20.1728 15.7332 20.2868C15.6666 20.4067 15.5144 20.4979 15.4204 20.5919C15.3259 20.6864 15.1854 20.8233 15.0632 20.8776C14.9332 20.9354 14.8549 21.0571 14.7157 21.088C14.6298 21.1071 14.5062 21.1911 14.4377 21.2444C14.235 21.4021 13.951 21.4154 13.7678 21.5803C13.7208 21.6227 13.5799 21.7042 13.5168 21.7116C13.4668 21.7175 13.399 21.7773 13.3585 21.7773C13.3069 21.7773 13.2568 21.6305 13.2388 21.59C13.1291 21.3431 12.8973 21.1422 12.7098 20.9548C12.6022 20.8471 12.4605 20.7219 12.3855 20.5803C12.3057 20.4295 12.1479 20.3317 12.065 20.1826C11.995 20.0565 11.882 19.9321 11.7793 19.8351C11.671 19.7328 11.5205 19.6506 11.4318 19.5397C11.262 19.3275 10.9711 19.1967 10.7908 19.0165C10.6064 18.8321 10.3035 18.9012 10.0765 18.8003C9.85194 18.7005 9.48585 18.737 9.28496 18.5763C9.10594 18.4331 8.80328 18.4366 8.5996 18.3234C8.47664 18.2551 8.34587 18.1894 8.21734 18.1323C8.04627 18.0563 7.97281 17.922 7.8177 17.8273C7.70922 17.761 7.50945 17.5499 7.44317 17.4373C7.39154 17.3495 7.19578 17.1404 7.10724 17.0898C6.77631 16.9007 6.63823 16.4295 6.21917 16.4295C5.75048 16.4295 5.14344 16.5218 4.70557 16.3967C4.47429 16.3306 4.14871 16.3252 3.90824 16.3252C3.7362 16.3252 3.33701 16.1944 3.20357 16.0743C3.01985 15.9089 2.81359 15.8683 2.81359 15.5781C2.81359 15.4538 2.77883 15.3413 2.77883 15.2306C2.77883 15.0932 2.83341 14.9851 2.84834 14.8657C2.85518 14.8109 3.00599 14.5941 3.05684 14.5877C3.10132 14.5821 3.13041 14.5295 3.17654 14.5163C3.21788 14.5045 3.2926 14.4945 3.33485 14.4757C3.5562 14.3773 3.83997 14.3727 4.04724 14.2576C4.2546 14.1424 4.59562 14.0092 4.82913 13.9969C4.95444 13.9903 5.13403 13.9155 5.24614 13.8657C5.32781 13.8294 5.55726 13.8232 5.64578 13.8232C6.1666 13.8232 6.75242 13.6371 7.26941 13.7962C7.54377 13.8806 7.83481 14.0027 8.11309 14.0645C8.35683 14.1187 8.59498 14.1359 8.86023 14.1359" stroke="#0D0D0D" stroke-linecap="round"/>
<path d="M12.2658 18.2365C11.9631 18.2365 11.6818 18.306 11.3796 18.306C11.2243 18.306 11.0536 18.3272 10.9105 18.2636C10.7899 18.21 10.5733 18.1323 10.4414 18.1323C10.1534 18.1323 9.79109 17.7691 9.55522 17.6381C9.42091 17.5634 9.33306 17.4135 9.19227 17.333C9.06657 17.2612 8.95053 17.1556 8.82545 17.082C8.69922 17.0078 8.54381 16.9062 8.43547 16.8195C8.3407 16.7437 8.09931 16.712 8.02618 16.6206C7.95279 16.5289 7.71141 16.5367 7.60918 16.4913C7.49216 16.4393 7.35587 16.3944 7.24236 16.3619C6.70625 16.2088 6.13528 16.4295 5.59363 16.4295" stroke="#0D0D0D" stroke-linecap="round"/>
<path d="M7.08796 9.20133C7.07717 9.11506 6.92618 9.05391 6.9142 8.95808C6.90508 8.88506 6.79796 8.79717 6.74817 8.74185C6.59117 8.5674 6.524 8.3832 6.25394 8.36731C6.12815 8.35991 5.69369 8.22745 5.66317 8.47156C5.63755 8.67657 5.16289 8.68007 5.02028 8.68007C4.84245 8.68007 4.68915 8.91589 4.5859 9.04495C4.44586 9.22001 4.27437 9.35618 4.13414 9.53146C3.96883 9.7381 3.68341 9.49936 3.49125 9.65309C3.28529 9.81786 3.07911 10.0001 2.88311 10.1744C2.51853 10.4984 2.23133 10.9314 2.00662 11.3559C1.8789 11.5971 1.62863 11.8734 1.59733 12.1551C1.56584 12.4385 1.37294 12.7537 1.23244 13.0065C1.12088 13.2074 0.910943 13.541 1.04131 13.7691C1.14474 13.9501 1.31471 14.0999 1.42357 14.2904C1.48484 14.3976 1.6067 14.5031 1.71896 14.553C1.85511 14.6135 1.95043 14.7562 2.06646 14.8464C2.13131 14.8968 2.23653 15.0161 2.31165 15.0375C2.39831 15.0623 2.59665 15.0921 2.63985 15.1785" stroke="#0D0D0D" stroke-linecap="round"/>
<path d="M7.99148 13.8579C7.99148 13.5225 8.82507 12.6291 8.14593 12.4351C8.00587 12.3951 7.54375 12.2631 7.40844 12.3714C7.26159 12.4889 6.98371 12.6628 6.98371 12.8675C6.98371 13.0055 6.99204 13.0691 6.90648 12.9621C6.83692 12.8752 6.73957 12.78 6.65357 12.7112C6.55752 12.6343 6.44751 12.5523 6.35819 12.4679C6.29812 12.4112 6.22549 12.3506 6.18444 12.2787C6.14649 12.2123 6.17432 12.245 6.22691 12.1976C6.50827 11.9444 6.64022 11.52 6.86208 11.1995C7.05527 10.9205 7.44825 9.97504 7.29646 10.2786" stroke="#0D0D0D" stroke-linecap="round"/>
<path d="M5.14191 9.30557C5.13255 9.38049 5.03844 9.43645 5.00291 9.49863C4.92681 9.6318 4.7867 9.76345 4.73262 9.90406C4.65341 10.11 4.43804 10.3416 4.30789 10.5296C4.14618 10.7631 3.93153 10.9352 3.79435 11.1821C3.67326 11.4001 3.5108 11.5429 3.34259 11.7111C3.10858 11.9451 2.98998 12.5665 3.23834 12.8424C3.37185 12.9908 3.48976 13.1729 3.68238 13.2749C3.79898 13.3366 4.00816 13.5017 4.06464 13.6147" stroke="#0D0D0D" stroke-linecap="round"/>
<path d="M2.63984 14.4835C2.54671 14.4718 2.43102 14.244 2.36183 14.1707C2.25007 14.0524 2.2054 13.9143 2.11085 13.7962C1.96989 13.62 1.96728 13.0914 2.11085 12.9119C2.14866 12.8647 2.14952 12.7381 2.18035 12.6764C2.22686 12.5834 2.27414 12.4939 2.31936 12.3984C2.45786 12.106 2.59899 11.8264 2.77884 11.5567C3.05005 11.1498 3.26319 10.663 3.61286 10.3134" stroke="#0D0D0D" stroke-linecap="round"/>
</svg>
