<svg width="83" height="94" viewBox="0 0 83 94" fill="none" xmlns="http://www.w3.org/2000/svg">
<path d="M79.8702 3.45398C75.1156 3.45398 70.361 3.45398 65.6065 3.45398C60.3763 3.45398 56.0541 4.88407 51.0011 5.80279C41.1187 7.5996 35.1427 12.8212 28.3672 19.5967C24.2512 23.7127 23.8369 30.8287 21.8332 36.0384C19.1716 42.9584 20.8932 50.8602 19.8687 58.0318C19.193 62.7618 19.1427 67.4027 19.1427 72.2528C19.1427 75.3138 18.0392 81.1052 19.5271 83.7833C20.3344 85.2364 19.9114 87.5349 19.9114 89.1642C19.9114 91.8354 21.6339 88.2532 22.0467 87.8403C24.7754 85.1117 27.1535 82.3065 29.9046 79.5554C32.0908 77.3692 33.8554 74.8359 36.0542 72.6371C38.4981 70.1932 38.7873 68.7722 36.8229 72.2101C35.6025 74.3458 33.1222 77.1351 31.0576 78.7867C28.8243 80.5734 26.9787 83.9998 24.5236 85.5342C21.219 87.5997 21.3127 90.8683 18.2032 87.4133C15.8706 84.8215 13.7552 82.1966 11.2849 79.7263C8.68084 77.1222 4.63804 74.3758 3 71.0997" stroke="#0D0D0D" stroke-width="6" stroke-linecap="round"/>
</svg>
