<svg width="51" height="51" viewBox="0 0 51 51" fill="none" xmlns="http://www.w3.org/2000/svg">
<path d="M2.22833 23.3567C2.22833 21.6543 1.90827 19.3797 2.02602 17.3911C2.03801 16.7552 2.10547 16.1582 2.27766 15.6749C2.32873 15.4805 2.38821 15.293 2.45716 15.1136C2.58356 14.7847 2.7344 14.5256 2.90353 14.3113C3.27886 13.4017 3.60873 12.4664 4.28783 11.7793C5.26769 10.7878 6.42952 10.0289 7.37708 9.07013C10.9692 5.43539 15.9575 5.17285 20.146 2.8183C22.5419 1.47143 26.8365 2.19312 29.6197 2.19312C30.5375 2.19312 31.3443 2.35659 32.1059 2.61614C33.0376 2.74475 33.9867 2.90527 34.9744 3.073C37.7128 3.53805 41.2722 3.635 42.8005 6.38416C43.6334 7.88242 44.6035 9.23387 45.1574 10.8531C46.5511 14.927 46.7014 19.643 47.6288 23.8661C48.0735 25.891 48.773 27.6078 48.773 29.7243C48.773 31.9492 49.3898 35.2012 48.5899 37.296C47.244 40.8208 42.7973 45.1681 39.2078 46.4653C36.9597 47.2778 34.7893 48.277 32.4114 48.665C28.7203 49.2675 24.7042 48.8734 20.9698 48.8734C18.4165 48.8734 15.7754 47.8851 13.3496 47.1137C12.235 46.7592 11.1703 45.2919 10.3061 44.5203C7.43933 41.9608 6.23975 37.4014 4.4709 34.0774C3.28607 31.8509 2.22833 27.8474 2.22833 25.3249V23.3567Z" fill="#0D0D0D"/>
<path d="M11.702 38.4537C8.26062 38.1055 6.29071 34.2179 4.72261 31.5999C3.07843 28.8548 2.22833 26.5359 2.22833 23.3567C2.22833 20.944 1.58544 17.3817 2.45716 15.1136C3.04772 13.577 4.17165 13.564 5.20316 12.5202C7.88859 9.80291 10.2948 6.64855 13.9446 5.31903C17.6201 3.98015 21.3825 3.31001 25.249 2.6099C28.6137 2.00065 31.5639 2.49383 34.9744 3.073C37.7128 3.53805 41.2722 3.635 42.8005 6.38416C43.6334 7.88242 44.6035 9.23387 45.1574 10.8531C46.5511 14.927 46.7014 19.643 47.6288 23.8661C48.0735 25.891 48.773 27.6078 48.773 29.7243C48.773 31.9492 49.3898 35.2012 48.5899 37.296C47.244 40.8208 42.7973 45.1681 39.2078 46.4653C36.9597 47.2778 34.7893 48.277 32.4114 48.665C28.7203 49.2675 24.7042 48.8734 20.9698 48.8734C18.4165 48.8734 15.7754 47.8851 13.3496 47.1137C12.235 46.7592 11.1703 45.2919 10.3061 44.5203C7.43933 41.9607 6.23975 37.4014 4.4709 34.0774C3.28607 31.8509 2.22833 27.8474 2.22833 25.3249C2.22833 23.9742 2.22833 22.6235 2.22833 21.2728C2.22833 19.7081 1.65247 16.7459 2.43428 15.322C3.07857 14.1485 3.35066 12.7275 4.28783 11.7793C5.26769 10.7878 6.42952 10.0289 7.37708 9.07013C10.9692 5.43539 15.9575 5.17285 20.146 2.8183C22.5419 1.47143 26.8365 2.19312 29.6197 2.19312C31.97 2.19312 33.5919 3.26501 35.5922 4.27706" stroke="#0D0D0D" stroke-width="4" stroke-linecap="round"/>
</svg>
