<svg width="19" height="24" viewBox="0 0 19 24" fill="none" xmlns="http://www.w3.org/2000/svg">
<path d="M9.07103 21.7998C9.07103 16.9102 9.35387 12.3825 9.35387 7.5163C9.35387 6.46616 9.04064 2.4584 10.4852 4.98644C10.8373 5.60263 11.8836 6.81281 12.4651 7.15489C12.8949 7.4077 13.3039 8.04295 13.7379 8.38054C14.0537 8.62615 14.8106 8.9632 15.0107 9.21335C15.3422 9.62778 16.8952 10.3268 16.5506 9.63761C15.8696 8.27564 14.9734 7.67446 13.9422 6.74635C13.3954 6.25427 13.0141 5.24986 12.3237 5.09644C11.7909 4.97804 10.3994 3.60001 10.1395 3.13226C9.48428 1.9528 8.22251 1.32468 8.22251 3.13226C8.22251 4.34315 7.03748 5.01997 6.4626 5.96068C6.08998 6.57042 4.22157 7.73009 3.53991 7.92485C2.85151 8.12154 2.22723 9.23877 2 9.92045" stroke="#F8E3D0" stroke-width="3" stroke-linecap="round"/>
</svg>
