<svg width="84" height="93" viewBox="0 0 84 93" fill="none" xmlns="http://www.w3.org/2000/svg">
<path d="M3.76784 3C8.5224 3 13.277 3 18.0315 3C23.2617 3 27.5839 4.43009 32.6369 5.34881C42.5193 7.14562 48.4953 12.3672 55.2708 19.1427C59.3868 23.2587 59.8011 30.3747 61.8048 35.5844C64.4664 42.5045 62.7448 50.4063 63.7693 57.5778C64.445 62.3079 64.4953 66.9487 64.4953 71.7988C64.4953 74.8598 65.5988 80.6512 64.1109 83.3293C63.3036 84.7825 63.7266 87.0809 63.7266 88.7102C63.7266 91.3814 62.0041 87.7992 61.5913 87.3864C58.8626 84.6577 56.4845 81.8526 53.7334 79.1015C51.5472 76.9153 49.7826 74.3819 47.5838 72.1832C45.1399 69.7392 44.8507 68.3183 46.8151 71.7561C48.0355 73.8918 50.5158 76.6811 52.5804 78.3328C54.8137 80.1194 56.6593 83.5458 59.1144 85.0803C62.419 87.1457 62.3253 90.4143 65.4348 86.9593C67.7674 84.3675 69.8828 81.7426 72.3531 79.2723C74.9572 76.6682 79 73.9218 80.638 70.6457" stroke="#0D0D0D" stroke-width="6" stroke-linecap="round"/>
</svg>
