<svg width="174" height="211" viewBox="0 0 174 211" fill="none" xmlns="http://www.w3.org/2000/svg">
<path d="M17.5433 132.53C17.5433 100.3 15.6193 62.5514 15.6193 30.5961C12.4099 30.6734 9.18742 30.4907 6.65622 29.2198C2.44612 27.1058 3.02719 19.7256 3.02719 15.7556C3.02719 8.38896 3.28851 7.55556 10.7389 7.55556C15.7126 7.55556 20.7926 5.01989 25.9102 4.82222C33.1084 4.54419 40.1662 3 47.4827 3C55.6289 3 64.0637 3.91111 71.9787 3.91111C79.9388 3.91111 88.9556 4.06954 96.777 5.53086C109.473 7.90286 123.762 5.73333 136.847 5.73333C142.388 5.73333 147.892 6.64444 153.632 6.64444C159.332 6.64444 162.37 6.73999 166.787 10.2889C169.266 12.2804 170.694 21.6851 170.87 24.8667C171.089 28.8343 171.485 30.8732 167.689 31.1981C167.229 31.3623 164.572 31.5674 158.168 31.7C159.94 31.2725 161.259 31.0679 162.284 30.9885C159.154 31.1184 155.605 31.5092 154.337 32.358C157.274 34.7175 156.354 43.6018 156.354 47.2395C156.354 64.8097 161.797 81.0488 161.797 98.6667C161.797 107.105 159.983 115.628 159.983 124.127C159.983 129.539 160.105 134.965 159.983 140.375C159.728 151.601 159.196 167.77 154.136 177.933C152.819 180.577 152.503 184.63 151.868 187.5C151.242 190.328 150.112 194.008 150.003 196.864C149.78 202.686 146.56 204.356 140.93 204.356C131.292 204.356 121.088 208 110.991 208H90.3254C68.9627 208 44.9798 206.682 24.9021 198.433C20.231 196.514 19.9314 196.279 17.9969 192.005C16.194 188.022 17.5433 181.103 17.5433 176.82V132.53Z" fill="#0D0D0D"/>
<path d="M15.6193 30.5961C15.6193 62.5514 17.5433 100.3 17.5433 132.53C17.5433 147.293 17.5433 162.056 17.5433 176.82C17.5433 181.103 16.194 188.022 17.9969 192.005C19.9314 196.279 20.231 196.514 24.9021 198.433C44.9798 206.682 68.9627 208 90.3254 208C97.2138 208 104.102 208 110.991 208C121.088 208 131.292 204.356 140.93 204.356C146.56 204.356 149.78 202.686 150.003 196.864C150.112 194.008 151.242 190.328 151.868 187.5C152.503 184.63 152.819 180.577 154.136 177.933C159.196 167.77 159.728 151.601 159.983 140.375C160.105 134.965 159.983 129.539 159.983 124.127C159.983 115.628 161.797 107.105 161.797 98.6667C161.797 81.0488 156.354 64.8097 156.354 47.2395C156.354 43.6018 157.274 34.7175 154.337 32.358M154.337 32.358C152.852 31.1648 147.313 32.1556 145.466 32.1556C140.628 32.1556 135.789 32.1556 130.95 32.1556C121.747 32.1556 112.745 31.2444 103.38 31.2444C83.6743 31.2444 63.8336 30.3333 44.0553 30.3333C36.8813 30.3333 29.7072 30.3333 22.5332 30.3333C17.6429 30.3333 11.0894 31.4458 6.65622 29.2198C2.44612 27.1058 3.02719 19.7256 3.02719 15.7556C3.02719 8.38896 3.28851 7.55556 10.7389 7.55556C15.7126 7.55556 20.7926 5.01989 25.9102 4.82222C33.1084 4.54419 40.1663 3 47.4827 3C55.6289 3 64.0637 3.91111 71.9787 3.91111C79.9388 3.91111 88.9556 4.06954 96.777 5.53086C109.473 7.90286 123.762 5.73333 136.847 5.73333C142.388 5.73333 147.892 6.64444 153.632 6.64444C159.332 6.64444 162.37 6.73999 166.787 10.2889C169.266 12.2804 170.694 21.6851 170.87 24.8667C171.11 29.2126 171.562 31.2444 166.485 31.2444C164.862 31.2444 163.834 30.3333 158.168 31.7C180.163 31.2444 157.957 29.9348 154.337 32.358Z" stroke="#F8E3D0" stroke-width="6" stroke-linecap="round"/>
</svg>
