<?xml version="1.0" encoding="UTF-8"?>
<svg id="Calque_2" data-name="Calque 2" xmlns="http://www.w3.org/2000/svg" xmlns:xlink="http://www.w3.org/1999/xlink" viewBox="0 0 721 721">
  <defs>
    <style>
      .cls-1, .cls-2 {
        fill: none;
      }

      .cls-3 {
        fill: url(#Dégradé_sans_nom_629);
        filter: url(#drop-shadow-2);
      }

      .cls-4 {
        fill: url(#Dégradé_sans_nom_547);
        filter: url(#drop-shadow-1);
      }

      .cls-5 {
        clip-path: url(#clippath);
      }

      .cls-6 {
        fill: #f7ead9;
      }

      .cls-7 {
        fill: #802880;
      }

      .cls-8 {
        fill: #1d1d1b;
      }

      .cls-9 {
        fill: #298a37;
      }

      .cls-10 {
        fill: #299037;
      }

      .cls-11 {
        fill: url(#Dégradé_sans_nom_657-2);
      }

      .cls-12 {
        fill: url(#Dégradé_sans_nom_591-2);
      }

      .cls-13 {
        clip-path: url(#clippath-1);
      }

      .cls-14 {
        clip-path: url(#clippath-3);
      }

      .cls-15 {
        clip-path: url(#clippath-2);
      }

      .cls-2 {
        stroke: #070b14;
        stroke-miterlimit: 10;
        stroke-width: 7px;
      }

      .cls-16 {
        fill: url(#Dégradé_sans_nom_657);
      }

      .cls-17 {
        fill: url(#Dégradé_sans_nom_591);
      }

      .cls-18 {
        fill: url(#Dégradé_sans_nom_547-2);
        filter: url(#drop-shadow-3);
      }

      .cls-19 {
        fill: url(#Dégradé_sans_nom_629-2);
        filter: url(#drop-shadow-4);
      }
    </style>
    <linearGradient id="Dégradé_sans_nom_591" data-name="Dégradé sans nom 591" x1="428.03" y1="459.64" x2="423.4" y2="312.8" gradientTransform="translate(-191.69 341.69) rotate(-40.49)" gradientUnits="userSpaceOnUse">
      <stop offset="0" stop-color="#f7ead8"/>
      <stop offset=".25" stop-color="#d0aabb"/>
      <stop offset=".51" stop-color="#ae72a1"/>
      <stop offset=".73" stop-color="#95498f"/>
      <stop offset=".9" stop-color="#863184"/>
      <stop offset="1" stop-color="#812880"/>
    </linearGradient>
    <linearGradient id="Dégradé_sans_nom_657" data-name="Dégradé sans nom 657" x1="427.75" y1="368.27" x2="358.54" y2="497.86" gradientTransform="translate(-191.69 341.69) rotate(-40.49)" gradientUnits="userSpaceOnUse">
      <stop offset="0" stop-color="#f7ead8" stop-opacity="0"/>
      <stop offset=".27" stop-color="#eddad0" stop-opacity=".03"/>
      <stop offset=".56" stop-color="#d1abbb" stop-opacity=".13"/>
      <stop offset=".85" stop-color="#a15e98" stop-opacity=".29"/>
      <stop offset="1" stop-color="#812880" stop-opacity=".4"/>
    </linearGradient>
    <clipPath id="clippath">
      <circle class="cls-1" cx="368.42" cy="306.53" r="153.87"/>
    </clipPath>
    <linearGradient id="Dégradé_sans_nom_547" data-name="Dégradé sans nom 547" x1="533.96" y1="435.42" x2="452.16" y2="218.76" gradientTransform="translate(-191.69 341.69) rotate(-40.49)" gradientUnits="userSpaceOnUse">
      <stop offset="0" stop-color="#a4d9f1"/>
      <stop offset="1" stop-color="#0088b5"/>
    </linearGradient>
    <filter id="drop-shadow-1" filterUnits="userSpaceOnUse">
      <feOffset dx="-2.83" dy="11.34"/>
      <feGaussianBlur result="blur" stdDeviation="5.67"/>
      <feFlood flood-color="#1d1d1b" flood-opacity=".75"/>
      <feComposite in2="blur" operator="in"/>
      <feComposite in="SourceGraphic"/>
    </filter>
    <clipPath id="clippath-1">
      <circle class="cls-1" cx="368.47" cy="306.53" r="153.87"/>
    </clipPath>
    <radialGradient id="Dégradé_sans_nom_629" data-name="Dégradé sans nom 629" cx="388.47" cy="278.09" fx="376.9" fy="278.09" r="79.93" gradientTransform="translate(192.16 -248.66) rotate(34.68) scale(1 1.44)" gradientUnits="userSpaceOnUse">
      <stop offset=".86" stop-color="#802880"/>
      <stop offset=".86" stop-color="#7f287f" stop-opacity=".95"/>
      <stop offset=".9" stop-color="#7d2f7d" stop-opacity=".61"/>
      <stop offset=".93" stop-color="#7c357c" stop-opacity=".35"/>
      <stop offset=".95" stop-color="#7a387a" stop-opacity=".16"/>
      <stop offset=".98" stop-color="#7a3b7a" stop-opacity=".04"/>
      <stop offset="1" stop-color="#7a3c7a" stop-opacity="0"/>
    </radialGradient>
    <filter id="drop-shadow-2" filterUnits="userSpaceOnUse">
      <feOffset dx="2.83" dy="-11.34"/>
      <feGaussianBlur result="blur-2" stdDeviation="5.67"/>
      <feFlood flood-color="#1d1d1b" flood-opacity=".75"/>
      <feComposite in2="blur-2" operator="in"/>
      <feComposite in="SourceGraphic"/>
    </filter>
    <linearGradient id="Dégradé_sans_nom_591-2" data-name="Dégradé sans nom 591" x1="427.81" y1="456.82" x2="423.18" y2="309.98" xlink:href="#Dégradé_sans_nom_591"/>
    <linearGradient id="Dégradé_sans_nom_657-2" data-name="Dégradé sans nom 657" x1="427.53" y1="365.45" x2="358.32" y2="495.04" xlink:href="#Dégradé_sans_nom_657"/>
    <clipPath id="clippath-2">
      <circle class="cls-1" cx="366.42" cy="304.53" r="153.87"/>
    </clipPath>
    <linearGradient id="Dégradé_sans_nom_547-2" data-name="Dégradé sans nom 547" x1="533.74" y1="432.6" x2="451.94" y2="215.94" xlink:href="#Dégradé_sans_nom_547"/>
    <filter id="drop-shadow-3" filterUnits="userSpaceOnUse">
      <feOffset dx="-2.83" dy="11.34"/>
      <feGaussianBlur result="blur-3" stdDeviation="5.67"/>
      <feFlood flood-color="#1d1d1b" flood-opacity=".75"/>
      <feComposite in2="blur-3" operator="in"/>
      <feComposite in="SourceGraphic"/>
    </filter>
    <clipPath id="clippath-3">
      <circle class="cls-1" cx="366.47" cy="304.53" r="153.87"/>
    </clipPath>
    <radialGradient id="Dégradé_sans_nom_629-2" data-name="Dégradé sans nom 629" cx="388.25" cy="275.27" fx="376.68" fy="275.27" gradientTransform="translate(188.04 -247.21) rotate(34.68) scale(1 1.44)" xlink:href="#Dégradé_sans_nom_629"/>
    <filter id="drop-shadow-4" filterUnits="userSpaceOnUse">
      <feOffset dx="2.83" dy="-11.34"/>
      <feGaussianBlur result="blur-4" stdDeviation="5.67"/>
      <feFlood flood-color="#1d1d1b" flood-opacity=".75"/>
      <feComposite in2="blur-4" operator="in"/>
      <feComposite in="SourceGraphic"/>
    </filter>
  </defs>
  <g id="Calque_11" data-name="Calque 11">
    <rect class="cls-6" width="721" height="721"/>
  </g>
  <g id="logo_de_base" data-name="logo de base">
    <path class="cls-17" d="m297.25,223.83c42.36,3.32,64.33,32.29,70.69,82.7,5.31,42.15,28.33,79.39,70.69,82.71,42.36,3.32,79.38-28.33,82.7-70.69-6.64,84.71-80.69,148.01-165.41,141.38-84.71-6.64-148.01-80.69-141.38-165.41,3.32-42.36,40.35-74,82.71-70.68Z"/>
    <path class="cls-16" d="m297.25,223.83c42.36,3.32,64.33,32.29,70.69,82.7,5.31,42.15,28.33,79.39,70.69,82.71,42.36,3.32,79.38-28.33,82.7-70.69-6.64,84.71-80.69,148.01-165.41,141.38-84.71-6.64-148.01-80.69-141.38-165.41,3.32-42.36,40.35-74,82.71-70.68Z"/>
    <g class="cls-5">
      <path class="cls-4" d="m379.95,153.14c84.71,6.64,145.43,80.53,141.38,165.41-1.96,41.03-39.14,74.04-82.7,70.69-42.37-3.25-65.36-40.56-70.69-82.71-6-47.49-28.33-79.38-70.69-82.7-42.36-3.32-79.39,28.33-82.71,70.68,6.64-84.71,80.69-148.01,165.41-141.38Z"/>
    </g>
    <g class="cls-13">
      <path class="cls-3" d="m297.26,223.82c45.38,3.91,65.34,39.49,70.67,82.71,3.68,29.81-26.51-47.69-153.38-12.03,3.32-42.36,40.35-74,82.71-70.68Z"/>
      <path class="cls-7" d="m343.98,297.79c-5.44-5.4-12.73-8.12-20.06-9.82-8.3-1.93-16.79-3.28-25.19-4.73-4.46-.77-8.94-1.37-13.47-1.41s-8.94.23-13.39.55c-9.1.64-18.18,1.75-27.17,3.3-10.04,1.73-19.98,4.05-29.75,6.91-3.08.9-1.77,5.73,1.33,4.82,16.8-4.92,34.07-8.22,51.52-9.72,8.63-.74,17.46-1.45,26.08-.2s16.73,2.86,25.02,4.5c7.71,1.53,15.82,3.62,21.57,9.33,2.29,2.27,5.82-1.26,3.54-3.54h0Z"/>
    </g>
    <circle class="cls-8" cx="395.46" cy="309.12" r="9.24"/>
    <circle class="cls-8" cx="506.06" cy="309.47" r="9.24"/>
    <g id="bouche2">
      <path class="cls-2" d="m490.91,295.34c-19.37-7.12-60.36-7.96-79.82-.25"/>
      <path class="cls-2" d="m482.28,282.22c5.17,4.5,9.92,10.53,10.19,13.13-1.57,1.89-8,4.4-13.61,4.8"/>
      <path class="cls-2" d="m419.41,282.02c-5.2,4.47-9.98,10.47-10.27,13.07,1.56,1.9,7.97,4.45,13.58,4.88"/>
    </g>
    <circle class="cls-8" cx="344.46" cy="309.63" r="9.24"/>
    <circle class="cls-8" cx="233.85" cy="309.56" r="9.24"/>
    <g id="bouche2-2" data-name="bouche2">
      <path class="cls-2" d="m249.05,323.65c19.39,7.07,60.38,7.8,79.82.05"/>
      <path class="cls-2" d="m257.7,336.76c-5.18-4.49-9.94-10.5-10.22-13.1,1.57-1.9,7.99-4.42,13.6-4.83"/>
      <path class="cls-2" d="m320.57,336.79c5.19-4.48,9.96-10.49,10.24-13.09-1.56-1.9-7.99-4.43-13.59-4.85"/>
    </g>
    <g>
      <path class="cls-7" d="m126.49,502.65c-9.1.65-15.21,1.82-23.27,2.73-5.85.65-9.36-3.12-9.49-7.8,0-5.2,2.6-7.93,7.54-8.58,12.35-2.08,21.97-3.25,34.71-3.25s21.84,1.04,34.32,3.25c4.81.78,7.41,3.38,7.41,8.58,0,4.68-3.64,8.45-9.49,7.8-8.06-1.04-14.17-2.08-23.27-2.73v66.17c0,5.33-4.55,8.84-9.23,8.84s-9.23-3.51-9.23-8.84v-66.17Z"/>
      <path class="cls-7" d="m247.52,495.37c0-5.46,3.9-8.71,9.23-8.71s9.23,3.25,9.23,8.71v43.81c0,25.22-14.69,39.78-41.47,39.78s-41.6-14.56-41.6-39.78v-43.81c0-5.46,3.9-8.71,9.23-8.71s9.23,3.25,9.23,8.71v43.81c0,17.55,10.79,23.4,23.14,23.4s23.01-5.85,23.01-23.4v-43.81Z"/>
      <path class="cls-7" d="m277.81,495.37c0-5.07,1.3-6.76,9.23-7.93,6.89-.91,17.16-1.43,23.53-1.43,22.1,0,39.91,6.37,39.91,28.73,0,14.82-7.28,23.14-16.77,27.56,5.46,7.54,7.8,16.25,12.61,17.94,2.73,1.43,7.8,1.95,7.8,9.1,0,5.72-3.12,8.32-9.88,8.32-19.5,0-19.37-27.3-30.16-31.2h-2.08c-5.33,0-11.31-.52-15.73-1.17v23.92c0,5.46-3.77,8.45-9.23,8.45s-9.23-2.99-9.23-8.45v-73.84Zm18.46,33.67c3.64.78,9.49,1.04,15.99,1.04,8.58,0,19.76-2.34,19.76-14.56,0-11.57-10.01-13.26-19.37-13.26-6.5,0-11.96.26-16.38,1.04v25.74Z"/>
      <path class="cls-7" d="m424.84,528.91c0-19.5-10.4-26-23.01-26s-23.14,6.5-23.14,26v40.04c0,6.37-3.64,8.71-9.23,8.71s-9.23-2.34-9.23-8.71v-39.91c0-27.3,14.43-43.42,41.6-43.42s41.47,16.12,41.47,43.42v39.91c0,6.37-3.77,8.71-9.23,8.71s-9.23-2.34-9.23-8.71v-40.04Z"/>
      <path class="cls-10" d="m455.13,495.5c0-5.33,3.9-8.84,9.23-8.84s9.23,3.51,9.23,8.84v73.32c0,5.33-4.68,8.84-9.23,8.84s-9.23-3.51-9.23-8.84v-73.32Z"/>
      <path class="cls-10" d="m486.72,496.02c0-4.68,1.56-6.76,7.54-7.54,7.67-1.17,20.67-2.21,29.77-2.21,20.54,0,37.83,6.89,37.83,30.03,0,24.57-22.1,30.42-38.09,30.42-6.63,0-13.52-.65-18.59-1.04v23.14c0,5.59-4.29,8.84-9.23,8.84s-9.23-3.25-9.23-8.84v-72.8Zm18.46,33.28c5.72.78,10.4,1.17,17.42,1.17,8.97,0,20.41-1.69,20.41-14.04s-11.44-13.78-20.41-13.78c-7.02,0-11.7.39-17.42,1.3v25.35Z"/>
      <path class="cls-7" d="m610.49,538.92c-3.25,2.99-8.58,5.07-15.6,5.07-16.64,0-26.13-11.44-26.13-28.47,0-24.31,18.59-30.42,34.45-30.42s33.54,5.85,33.54,30.94c0,31.07-28.08,53.43-44.85,60.71-1.69.52-3.25.78-4.68.78-5.07,0-8.06-3.38-8.06-7.28,0-2.6,1.43-5.46,4.55-7.54,16.9-11.05,19.37-11.57,26.78-23.79Zm-7.67-10.79c8.06,0,14.95-4.42,14.95-13.13s-7.02-13-14.82-13-15.47,4.16-15.47,13,7.54,13.13,15.34,13.13Z"/>
    </g>
    <path class="cls-9" d="m292.4,238.33c-1-6.12,1.15-12.34,5.63-16.54,1.47-1.39,3.22-2.56,5.18-3.43,2.22-.98,4.53-1.49,6.82-1.58.13,0,.25,0,.39-.02.02,0,.04.02.07,0,.62-.03,1.22-.18,1.82-.45,2.36-1.05,3.6-3.55,3.14-5.98,0-.05-.02-.09-.03-.14-2.01-12.42,2.33-25.03,11.38-33.6,3.05-2.91,6.66-5.35,10.73-7.15,3.58-1.59,7.27-2.57,10.95-3,.02,0,.03,0,.05,0,.23-.03.46-.05.69-.07.04,0,.06-.01.11-.02.26-.06.53-.15.79-.26,1.19-.53,2.01-1.54,2.32-2.69.08-.26.13-.52.15-.79.6-3.45.19-7.11-1.33-10.55-3.55-8.02-12.09-12.29-20.37-10.75-1.58.46-3.15.98-4.72,1.56-1.51.55-3.01,1.16-4.5,1.82-25.66,11.37-41.72,35.5-43.94,61.62-.96,10.95.51,22.25,4.72,33.11.45,2.03,11.63.28,9.95-1.12Z"/>
    <path class="cls-10" d="m287.41,240.11v.16c1.13.22,2.3.33,3.49.33,2.15,0,4.21-.36,6.14-1.05,1.57-6,6.05-10.82,11.84-12.84,1.91-.67,3.98-1.03,6.12-1.03,2.43,0,4.75.47,6.88,1.32.13.05.23.09.36.14.02.02.03.03.06.03.58.22,1.19.33,1.85.33,2.58,0,4.73-1.79,5.29-4.2.02-.05.02-.09.03-.14,3.2-12.17,12.26-21.94,24.01-26.11,3.96-1.43,8.25-2.19,12.7-2.19,3.92,0,7.69.6,11.23,1.69.02.02.03.02.05.02.22.06.44.14.66.22.03.02.06.02.11.03.27.05.55.08.83.08,1.3,0,2.46-.6,3.21-1.52.17-.2.33-.42.45-.66,1.94-2.91,3.05-6.42,3.05-10.18,0-8.77-6.08-16.13-14.27-18.08-1.63-.22-3.27-.38-4.95-.49-1.6-.11-3.23-.16-4.86-.16-28.07,0-52.52,15.57-65.13,38.55-5.86,10.6-9.18,22.79-9.18,35.76Z"/>
    <path class="cls-10" d="m286.02,240.11v.16c-1.13.22-2.3.33-3.49.33-2.15,0-4.21-.36-6.14-1.05-1.57-6-6.05-10.82-11.84-12.84-1.91-.67-3.98-1.03-6.12-1.03-2.43,0-4.75.47-6.88,1.32-.13.05-.23.09-.36.14-.02.02-.03.03-.06.03-.58.22-1.19.33-1.85.33-2.58,0-4.73-1.79-5.29-4.2-.02-.05-.02-.09-.03-.14-3.2-12.17-12.26-21.94-24.01-26.11-3.96-1.43-8.25-2.19-12.7-2.19-3.92,0-7.69.6-11.23,1.69-.02.02-.03.02-.05.02-.22.06-.44.14-.66.22-.03.02-.06.02-.11.03-.27.05-.55.08-.83.08-1.3,0-2.46-.6-3.21-1.52-.17-.2-.33-.42-.45-.66-1.94-2.91-3.05-6.42-3.05-10.18,0-8.77,6.08-16.13,14.27-18.08,1.63-.22,3.27-.38,4.95-.49,1.6-.11,3.23-.16,4.86-.16,28.07,0,52.52,15.57,65.13,38.55,5.86,10.6,9.18,22.79,9.18,35.76Z"/>
  </g>
  <g id="texte">
    <g>
      <path class="cls-7" d="m124.49,500.65c-9.1.65-15.21,1.82-23.27,2.73-5.85.65-9.36-3.12-9.49-7.8,0-5.2,2.6-7.93,7.54-8.58,12.35-2.08,21.97-3.25,34.71-3.25s21.84,1.04,34.32,3.25c4.81.78,7.41,3.38,7.41,8.58,0,4.68-3.64,8.45-9.49,7.8-8.06-1.04-14.17-2.08-23.27-2.73v66.17c0,5.33-4.55,8.84-9.23,8.84s-9.23-3.51-9.23-8.84v-66.17Z"/>
      <path class="cls-7" d="m245.52,493.37c0-5.46,3.9-8.71,9.23-8.71s9.23,3.25,9.23,8.71v43.81c0,25.22-14.69,39.78-41.47,39.78s-41.6-14.56-41.6-39.78v-43.81c0-5.46,3.9-8.71,9.23-8.71s9.23,3.25,9.23,8.71v43.81c0,17.55,10.79,23.4,23.14,23.4s23.01-5.85,23.01-23.4v-43.81Z"/>
      <path class="cls-7" d="m275.81,493.37c0-5.07,1.3-6.76,9.23-7.93,6.89-.91,17.16-1.43,23.53-1.43,22.1,0,39.91,6.37,39.91,28.73,0,14.82-7.28,23.14-16.77,27.56,5.46,7.54,7.8,16.25,12.61,17.94,2.73,1.43,7.8,1.95,7.8,9.1,0,5.72-3.12,8.32-9.88,8.32-19.5,0-19.37-27.3-30.16-31.2h-2.08c-5.33,0-11.31-.52-15.73-1.17v23.92c0,5.46-3.77,8.45-9.23,8.45s-9.23-2.99-9.23-8.45v-73.84Zm18.46,33.67c3.64.78,9.49,1.04,15.99,1.04,8.58,0,19.76-2.34,19.76-14.56,0-11.57-10.01-13.26-19.37-13.26-6.5,0-11.96.26-16.38,1.04v25.74Z"/>
      <path class="cls-7" d="m422.84,526.91c0-19.5-10.4-26-23.01-26s-23.14,6.5-23.14,26v40.04c0,6.37-3.64,8.71-9.23,8.71s-9.23-2.34-9.23-8.71v-39.91c0-27.3,14.43-43.42,41.6-43.42s41.47,16.12,41.47,43.42v39.91c0,6.37-3.77,8.71-9.23,8.71s-9.23-2.34-9.23-8.71v-40.04Z"/>
      <path class="cls-10" d="m453.13,493.5c0-5.33,3.9-8.84,9.23-8.84s9.23,3.51,9.23,8.84v73.32c0,5.33-4.68,8.84-9.23,8.84s-9.23-3.51-9.23-8.84v-73.32Z"/>
      <path class="cls-10" d="m484.72,494.02c0-4.68,1.56-6.76,7.54-7.54,7.67-1.17,20.67-2.21,29.77-2.21,20.54,0,37.83,6.89,37.83,30.03,0,24.57-22.1,30.42-38.09,30.42-6.63,0-13.52-.65-18.59-1.04v23.14c0,5.59-4.29,8.84-9.23,8.84s-9.23-3.25-9.23-8.84v-72.8Zm18.46,33.28c5.72.78,10.4,1.17,17.42,1.17,8.97,0,20.41-1.69,20.41-14.04s-11.44-13.78-20.41-13.78c-7.02,0-11.7.39-17.42,1.3v25.35Z"/>
      <path class="cls-7" d="m608.49,536.92c-3.25,2.99-8.58,5.07-15.6,5.07-16.64,0-26.13-11.44-26.13-28.47,0-24.31,18.59-30.42,34.45-30.42s33.54,5.85,33.54,30.94c0,31.07-28.08,53.43-44.85,60.71-1.69.52-3.25.78-4.68.78-5.07,0-8.06-3.38-8.06-7.28,0-2.6,1.43-5.46,4.55-7.54,16.9-11.05,19.37-11.57,26.78-23.79Zm-7.67-10.79c8.06,0,14.95-4.42,14.95-13.13s-7.02-13-14.82-13-15.47,4.16-15.47,13,7.54,13.13,15.34,13.13Z"/>
    </g>
  </g>
  <g id="navet">
    <path class="cls-12" d="m295.25,221.83c42.36,3.32,64.33,32.29,70.69,82.7,5.31,42.15,28.33,79.39,70.69,82.71,42.36,3.32,79.38-28.33,82.7-70.69-6.64,84.71-80.69,148.01-165.41,141.38-84.71-6.64-148.01-80.69-141.38-165.41,3.32-42.36,40.35-74,82.71-70.68Z"/>
    <path class="cls-11" d="m295.25,221.83c42.36,3.32,64.33,32.29,70.69,82.7,5.31,42.15,28.33,79.39,70.69,82.71,42.36,3.32,79.38-28.33,82.7-70.69-6.64,84.71-80.69,148.01-165.41,141.38-84.71-6.64-148.01-80.69-141.38-165.41,3.32-42.36,40.35-74,82.71-70.68Z"/>
  </g>
  <g id="goute">
    <g class="cls-15">
      <path class="cls-18" d="m377.95,151.14c84.71,6.64,145.43,80.53,141.38,165.41-1.96,41.03-39.14,74.04-82.7,70.69-42.37-3.25-65.36-40.56-70.69-82.71-6-47.49-28.33-79.38-70.69-82.7-42.36-3.32-79.39,28.33-82.71,70.68,6.64-84.71,80.69-148.01,165.41-141.38Z"/>
    </g>
  </g>
  <g id="navet_haut" data-name="navet haut">
    <g class="cls-14">
      <path class="cls-19" d="m295.26,221.82c45.38,3.91,65.34,39.49,70.67,82.71,3.68,29.81-26.51-47.69-153.38-12.03,3.32-42.36,40.35-74,82.71-70.68Z"/>
      <path class="cls-7" d="m341.98,295.79c-5.44-5.4-12.73-8.12-20.06-9.82-8.3-1.93-16.79-3.28-25.19-4.73-4.46-.77-8.94-1.37-13.47-1.41s-8.94.23-13.39.55c-9.1.64-18.18,1.75-27.17,3.3-10.04,1.73-19.98,4.05-29.75,6.91-3.08.9-1.77,5.73,1.33,4.82,16.8-4.92,34.07-8.22,51.52-9.72,8.63-.74,17.46-1.45,26.08-.2s16.73,2.86,25.02,4.5c7.71,1.53,15.82,3.62,21.57,9.33,2.29,2.27,5.82-1.26,3.54-3.54h0Z"/>
    </g>
  </g>
  <g id="visage_navet" data-name="visage navet">
    <circle class="cls-8" cx="342.46" cy="307.63" r="9.24"/>
    <circle class="cls-8" cx="231.85" cy="307.56" r="9.24"/>
    <g id="bouche2-3" data-name="bouche2">
      <path class="cls-2" d="m247.05,321.65c19.39,7.07,60.38,7.8,79.82.05"/>
      <path class="cls-2" d="m255.7,334.76c-5.18-4.49-9.94-10.5-10.22-13.1,1.57-1.9,7.99-4.42,13.6-4.83"/>
      <path class="cls-2" d="m318.57,334.79c5.19-4.48,9.96-10.49,10.24-13.09-1.56-1.9-7.99-4.43-13.59-4.85"/>
    </g>
  </g>
  <g id="visage_goute" data-name="visage goute">
    <circle class="cls-8" cx="393.46" cy="307.12" r="9.24"/>
    <circle class="cls-8" cx="504.06" cy="307.47" r="9.24"/>
    <g id="bouche2-4" data-name="bouche2">
      <path class="cls-2" d="m488.91,293.34c-19.37-7.12-60.36-7.96-79.82-.25"/>
      <path class="cls-2" d="m480.28,280.22c5.17,4.5,9.92,10.53,10.19,13.13-1.57,1.89-8,4.4-13.61,4.8"/>
      <path class="cls-2" d="m417.41,280.02c-5.2,4.47-9.98,10.47-10.27,13.07,1.56,1.9,7.97,4.45,13.58,4.88"/>
    </g>
  </g>
  <g id="feuille1">
    <path class="cls-10" d="m284.02,238.11v.16c-1.13.22-2.3.33-3.49.33-2.15,0-4.21-.36-6.14-1.05-1.57-6-6.05-10.82-11.84-12.84-1.91-.67-3.98-1.03-6.12-1.03-2.43,0-4.75.47-6.88,1.32-.13.05-.23.09-.36.14-.02.02-.03.03-.06.03-.58.22-1.19.33-1.85.33-2.58,0-4.73-1.79-5.29-4.2-.02-.05-.02-.09-.03-.14-3.2-12.17-12.26-21.94-24.01-26.11-3.96-1.43-8.25-2.19-12.7-2.19-3.92,0-7.69.6-11.23,1.69-.02.02-.03.02-.05.02-.22.06-.44.14-.66.22-.03.02-.06.02-.11.03-.27.05-.55.08-.83.08-1.3,0-2.46-.6-3.21-1.52-.17-.2-.33-.42-.45-.66-1.94-2.91-3.05-6.42-3.05-10.18,0-8.77,6.08-16.13,14.27-18.08,1.63-.22,3.27-.38,4.95-.49,1.6-.11,3.23-.16,4.86-.16,28.07,0,52.52,15.57,65.13,38.55,5.86,10.6,9.18,22.79,9.18,35.76Z"/>
  </g>
  <g id="feuille2">
    <path class="cls-10" d="m285.41,238.11v.16c1.13.22,2.3.33,3.49.33,2.15,0,4.21-.36,6.14-1.05,1.57-6,6.05-10.82,11.84-12.84,1.91-.67,3.98-1.03,6.12-1.03,2.43,0,4.75.47,6.88,1.32.13.05.23.09.36.14.02.02.03.03.06.03.58.22,1.19.33,1.85.33,2.58,0,4.73-1.79,5.29-4.2.02-.05.02-.09.03-.14,3.2-12.17,12.26-21.94,24.01-26.11,3.96-1.43,8.25-2.19,12.7-2.19,3.92,0,7.69.6,11.23,1.69.02.02.03.02.05.02.22.06.44.14.66.22.03.02.06.02.11.03.27.05.55.08.83.08,1.3,0,2.46-.6,3.21-1.52.17-.2.33-.42.45-.66,1.94-2.91,3.05-6.42,3.05-10.18,0-8.77-6.08-16.13-14.27-18.08-1.63-.22-3.27-.38-4.95-.49-1.6-.11-3.23-.16-4.86-.16-28.07,0-52.52,15.57-65.13,38.55-5.86,10.6-9.18,22.79-9.18,35.76Z"/>
  </g>
  <g id="feuille3">
    <path class="cls-9" d="m290.4,236.33c-1-6.12,1.15-12.34,5.63-16.54,1.47-1.39,3.22-2.56,5.18-3.43,2.22-.98,4.53-1.49,6.82-1.58.13,0,.25,0,.39-.02.02,0,.04.02.07,0,.62-.03,1.22-.18,1.82-.45,2.36-1.05,3.6-3.55,3.14-5.98,0-.05-.02-.09-.03-.14-2.01-12.42,2.33-25.03,11.38-33.6,3.05-2.91,6.66-5.35,10.73-7.15,3.58-1.59,7.27-2.57,10.95-3,.02,0,.03,0,.05,0,.23-.03.46-.05.69-.07.04,0,.06-.01.11-.02.26-.06.53-.15.79-.26,1.19-.53,2.01-1.54,2.32-2.69.08-.26.13-.52.15-.79.6-3.45.19-7.11-1.33-10.55-3.55-8.02-12.09-12.29-20.37-10.75-1.58.46-3.15.98-4.72,1.56-1.51.55-3.01,1.16-4.5,1.82-25.66,11.37-41.72,35.5-43.94,61.62-.96,10.95.51,22.25,4.72,33.11.45,2.03,11.63.28,9.95-1.12Z"/>
  </g>
</svg>